<?xml version="1.0" encoding="UTF-8" standalone="no"?>
<!DOCTYPE svg PUBLIC "-//W3C//DTD SVG 1.1//EN"
 "http://www.w3.org/Graphics/SVG/1.1/DTD/svg11.dtd">
<!-- Generated by graphviz version 2.46.1 (20210213.1702)
 -->
<!-- Title: dependencies Pages: 1 -->
<svg width="1129pt" height="211pt"
 viewBox="0.00 0.00 1129.00 211.00" xmlns="http://www.w3.org/2000/svg" xmlns:xlink="http://www.w3.org/1999/xlink">
<g id="graph0" class="graph" transform="scale(1 1) rotate(0) translate(4 207)">
<title>dependencies</title>
<polygon fill="white" stroke="transparent" points="-4,4 -4,-207 1125,-207 1125,4 -4,4"/>
<text text-anchor="start" x="539.51" y="-42.4" font-family="sans-serif" font-weight="bold" font-size="14.00">Legend</text>
<polygon fill="#ffffb3" stroke="transparent" points="326.5,-10 326.5,-30 346.5,-30 346.5,-10 326.5,-10"/>
<text text-anchor="start" x="350.13" y="-15.4" font-family="sans-serif" font-size="14.00"> &#160;Declarations</text>
<polygon fill="#8dd3c7" stroke="transparent" points="439.5,-10 439.5,-30 459.5,-30 459.5,-10 439.5,-10"/>
<text text-anchor="start" x="463.23" y="-15.4" font-family="sans-serif" font-size="14.00"> &#160;Module</text>
<polygon fill="#80b1d3" stroke="transparent" points="525.5,-10 525.5,-30 545.5,-30 545.5,-10 525.5,-10"/>
<text text-anchor="start" x="549.28" y="-15.4" font-family="sans-serif" font-size="14.00"> &#160;Bootstrap</text>
<polygon fill="#fdb462" stroke="transparent" points="622.5,-10 622.5,-30 642.5,-30 642.5,-10 622.5,-10"/>
<text text-anchor="start" x="646.17" y="-15.4" font-family="sans-serif" font-size="14.00"> &#160;Providers</text>
<polygon fill="#fb8072" stroke="transparent" points="718.5,-10 718.5,-30 738.5,-30 738.5,-10 718.5,-10"/>
<text text-anchor="start" x="742.23" y="-15.4" font-family="sans-serif" font-size="14.00"> &#160;Exports</text>
<g id="clust1" class="cluster">
<title>cluster_UsersReportModule</title>
<polygon fill="none" stroke="black" stroke-dasharray="1,5" points="8,-70 8,-195 1113,-195 1113,-70 8,-70"/>
</g>
<g id="clust2" class="cluster">
<title>cluster_UsersReportModule_declarations</title>
<polygon fill="none" stroke="black" points="501,-78 501,-130 1105,-130 1105,-78 501,-78"/>
</g>
<g id="clust6" class="cluster">
<title>cluster_UsersReportModule_imports</title>
<polygon fill="none" stroke="black" points="16,-78 16,-130 493,-130 493,-78 16,-78"/>
</g>
<!-- UsersReportComponent -->
<g id="node1" class="node">
<title>UsersReportComponent</title>
<polygon fill="#ffffb3" stroke="black" points="1096.81,-122 945.19,-122 945.19,-86 1096.81,-86 1096.81,-122"/>
<text text-anchor="middle" x="1021" y="-99.8" font-family="Times,serif" font-size="14.00">UsersReportComponent</text>
</g>
<!-- UsersReportModule -->
<g id="node4" class="node">
<title>UsersReportModule</title>
<polygon fill="#8dd3c7" stroke="black" points="578.52,-187 575.52,-191 554.52,-191 551.52,-187 449.48,-187 449.48,-151 578.52,-151 578.52,-187"/>
<text text-anchor="middle" x="514" y="-164.8" font-family="Times,serif" font-size="14.00">UsersReportModule</text>
</g>
<!-- UsersReportComponent&#45;&gt;UsersReportModule -->
<g id="edge1" class="edge">
<title>UsersReportComponent&#45;&gt;UsersReportModule</title>
<path fill="none" stroke="black" d="M1021,-122.28C1021,-143.32 1021,-175 1021,-175 1021,-175 588.73,-175 588.73,-175"/>
<polygon fill="black" stroke="black" points="588.73,-171.5 578.73,-175 588.73,-178.5 588.73,-171.5"/>
</g>
<!-- UsersReportGraphsComponent -->
<g id="node2" class="node">
<title>UsersReportGraphsComponent</title>
<polygon fill="#ffffb3" stroke="black" points="926.73,-122 735.27,-122 735.27,-86 926.73,-86 926.73,-122"/>
<text text-anchor="middle" x="831" y="-99.8" font-family="Times,serif" font-size="14.00">UsersReportGraphsComponent</text>
</g>
<!-- UsersReportGraphsComponent&#45;&gt;UsersReportModule -->
<g id="edge2" class="edge">
<title>UsersReportGraphsComponent&#45;&gt;UsersReportModule</title>
<path fill="none" stroke="black" d="M831,-122.02C831,-139.37 831,-163 831,-163 831,-163 588.53,-163 588.53,-163"/>
<polygon fill="black" stroke="black" points="588.53,-159.5 578.53,-163 588.53,-166.5 588.53,-159.5"/>
</g>
<!-- UsersReportUserFormComponent -->
<g id="node3" class="node">
<title>UsersReportUserFormComponent</title>
<polygon fill="#ffffb3" stroke="black" points="717.07,-122 508.93,-122 508.93,-86 717.07,-86 717.07,-122"/>
<text text-anchor="middle" x="613" y="-99.8" font-family="Times,serif" font-size="14.00">UsersReportUserFormComponent</text>
</g>
<!-- UsersReportUserFormComponent&#45;&gt;UsersReportModule -->
<g id="edge3" class="edge">
<title>UsersReportUserFormComponent&#45;&gt;UsersReportModule</title>
<path fill="none" stroke="black" d="M543.86,-122.11C543.86,-122.11 543.86,-140.99 543.86,-140.99"/>
<polygon fill="black" stroke="black" points="540.36,-140.99 543.86,-150.99 547.36,-140.99 540.36,-140.99"/>
</g>
<!-- ChartCardsUiModule -->
<g id="node5" class="node">
<title>ChartCardsUiModule</title>
<polygon fill="#8dd3c7" stroke="black" points="484.81,-122 481.81,-126 460.81,-126 457.81,-122 347.19,-122 347.19,-86 484.81,-86 484.81,-122"/>
<text text-anchor="middle" x="416" y="-99.8" font-family="Times,serif" font-size="14.00">ChartCardsUiModule</text>
</g>
<!-- ChartCardsUiModule&#45;&gt;UsersReportModule -->
<g id="edge4" class="edge">
<title>ChartCardsUiModule&#45;&gt;UsersReportModule</title>
<path fill="none" stroke="black" d="M466.95,-122.11C466.95,-122.11 466.95,-140.99 466.95,-140.99"/>
<polygon fill="black" stroke="black" points="463.45,-140.99 466.95,-150.99 470.45,-140.99 463.45,-140.99"/>
</g>
<!-- SharedUiModule -->
<g id="node6" class="node">
<title>SharedUiModule</title>
<polygon fill="#8dd3c7" stroke="black" points="329.42,-122 326.42,-126 305.42,-126 302.42,-122 216.58,-122 216.58,-86 329.42,-86 329.42,-122"/>
<text text-anchor="middle" x="273" y="-99.8" font-family="Times,serif" font-size="14.00">SharedUiModule</text>
</g>
<!-- SharedUiModule&#45;&gt;UsersReportModule -->
<g id="edge5" class="edge">
<title>SharedUiModule&#45;&gt;UsersReportModule</title>
<path fill="none" stroke="black" d="M273,-122.02C273,-139.37 273,-163 273,-163 273,-163 439.42,-163 439.42,-163"/>
<polygon fill="black" stroke="black" points="439.42,-166.5 449.42,-163 439.42,-159.5 439.42,-166.5"/>
</g>
<!-- UsersReportRoutingModule -->
<g id="node7" class="node">
<title>UsersReportRoutingModule</title>
<polygon fill="#8dd3c7" stroke="black" points="198.14,-122 195.14,-126 174.14,-126 171.14,-122 23.86,-122 23.86,-86 198.14,-86 198.14,-122"/>
<text text-anchor="middle" x="111" y="-99.8" font-family="Times,serif" font-size="14.00">UsersReportRoutingModule</text>
</g>
<!-- UsersReportRoutingModule&#45;&gt;UsersReportModule -->
<g id="edge6" class="edge">
<title>UsersReportRoutingModule&#45;&gt;UsersReportModule</title>
<path fill="none" stroke="black" d="M111,-122.28C111,-143.32 111,-175 111,-175 111,-175 439.25,-175 439.25,-175"/>
<polygon fill="black" stroke="black" points="439.25,-178.5 449.25,-175 439.25,-171.5 439.25,-178.5"/>
</g>
</g>
</svg>
