<?xml version="1.0" encoding="UTF-8" standalone="no"?>
<!DOCTYPE svg PUBLIC "-//W3C//DTD SVG 1.1//EN"
 "http://www.w3.org/Graphics/SVG/1.1/DTD/svg11.dtd">
<!-- Generated by graphviz version 2.46.1 (20210213.1702)
 -->
<!-- Title: dependencies Pages: 1 -->
<svg width="900pt" height="284pt"
 viewBox="0.00 0.00 900.00 284.00" xmlns="http://www.w3.org/2000/svg" xmlns:xlink="http://www.w3.org/1999/xlink">
<g id="graph0" class="graph" transform="scale(1 1) rotate(0) translate(4 280)">
<title>dependencies</title>
<polygon fill="white" stroke="transparent" points="-4,4 -4,-280 896,-280 896,4 -4,4"/>
<text text-anchor="start" x="425.01" y="-42.4" font-family="sans-serif" font-weight="bold" font-size="14.00">Legend</text>
<polygon fill="#ffffb3" stroke="transparent" points="212,-10 212,-30 232,-30 232,-10 212,-10"/>
<text text-anchor="start" x="235.63" y="-15.4" font-family="sans-serif" font-size="14.00"> &#160;Declarations</text>
<polygon fill="#8dd3c7" stroke="transparent" points="325,-10 325,-30 345,-30 345,-10 325,-10"/>
<text text-anchor="start" x="348.73" y="-15.4" font-family="sans-serif" font-size="14.00"> &#160;Module</text>
<polygon fill="#80b1d3" stroke="transparent" points="411,-10 411,-30 431,-30 431,-10 411,-10"/>
<text text-anchor="start" x="434.78" y="-15.4" font-family="sans-serif" font-size="14.00"> &#160;Bootstrap</text>
<polygon fill="#fdb462" stroke="transparent" points="508,-10 508,-30 528,-30 528,-10 508,-10"/>
<text text-anchor="start" x="531.67" y="-15.4" font-family="sans-serif" font-size="14.00"> &#160;Providers</text>
<polygon fill="#fb8072" stroke="transparent" points="604,-10 604,-30 624,-30 624,-10 604,-10"/>
<text text-anchor="start" x="627.73" y="-15.4" font-family="sans-serif" font-size="14.00"> &#160;Exports</text>
<g id="clust1" class="cluster">
<title>cluster_ChartCardsUiModule</title>
<polygon fill="none" stroke="black" stroke-dasharray="1,5" points="8,-70 8,-268 884,-268 884,-70 8,-70"/>
</g>
<g id="clust2" class="cluster">
<title>cluster_ChartCardsUiModule_declarations</title>
<polygon fill="none" stroke="black" points="200,-78 200,-130 876,-130 876,-78 200,-78"/>
</g>
<g id="clust6" class="cluster">
<title>cluster_ChartCardsUiModule_imports</title>
<polygon fill="none" stroke="black" points="16,-78 16,-130 192,-130 192,-78 16,-78"/>
</g>
<g id="clust7" class="cluster">
<title>cluster_ChartCardsUiModule_exports</title>
<polygon fill="none" stroke="black" points="103,-208 103,-260 789,-260 789,-208 103,-208"/>
</g>
<!-- BubbleChartCardComponent -->
<g id="node1" class="node">
<title>BubbleChartCardComponent</title>
<polygon fill="#ffffb3" stroke="black" points="868.09,-122 687.91,-122 687.91,-86 868.09,-86 868.09,-122"/>
<text text-anchor="middle" x="778" y="-99.8" font-family="Times,serif" font-size="14.00">BubbleChartCardComponent</text>
</g>
<!-- ChartCardsUiModule -->
<g id="node4" class="node">
<title>ChartCardsUiModule</title>
<polygon fill="#8dd3c7" stroke="black" points="534.81,-187 531.81,-191 510.81,-191 507.81,-187 397.19,-187 397.19,-151 534.81,-151 534.81,-187"/>
<text text-anchor="middle" x="466" y="-164.8" font-family="Times,serif" font-size="14.00">ChartCardsUiModule</text>
</g>
<!-- BubbleChartCardComponent&#45;&gt;ChartCardsUiModule -->
<g id="edge1" class="edge">
<title>BubbleChartCardComponent&#45;&gt;ChartCardsUiModule</title>
<path fill="none" stroke="black" d="M734.38,-122.02C734.38,-139.37 734.38,-163 734.38,-163 734.38,-163 544.76,-163 544.76,-163"/>
<polygon fill="black" stroke="black" points="544.76,-159.5 534.76,-163 544.76,-166.5 544.76,-159.5"/>
</g>
<!-- ForceDirectedGraphCardComponent -->
<g id="node2" class="node">
<title>ForceDirectedGraphCardComponent</title>
<polygon fill="#ffffb3" stroke="black" points="669.59,-122 446.41,-122 446.41,-86 669.59,-86 669.59,-122"/>
<text text-anchor="middle" x="558" y="-99.8" font-family="Times,serif" font-size="14.00">ForceDirectedGraphCardComponent</text>
</g>
<!-- ForceDirectedGraphCardComponent&#45;&gt;ChartCardsUiModule -->
<g id="edge2" class="edge">
<title>ForceDirectedGraphCardComponent&#45;&gt;ChartCardsUiModule</title>
<path fill="none" stroke="black" d="M490.43,-122.11C490.43,-122.11 490.43,-140.99 490.43,-140.99"/>
<polygon fill="black" stroke="black" points="486.93,-140.99 490.43,-150.99 493.93,-140.99 486.93,-140.99"/>
</g>
<!-- HorizontalBarChartCardComponent -->
<g id="node3" class="node">
<title>HorizontalBarChartCardComponent</title>
<polygon fill="#ffffb3" stroke="black" points="427.73,-122 208.27,-122 208.27,-86 427.73,-86 427.73,-122"/>
<text text-anchor="middle" x="318" y="-99.8" font-family="Times,serif" font-size="14.00">HorizontalBarChartCardComponent</text>
</g>
<!-- HorizontalBarChartCardComponent&#45;&gt;ChartCardsUiModule -->
<g id="edge3" class="edge">
<title>HorizontalBarChartCardComponent&#45;&gt;ChartCardsUiModule</title>
<path fill="none" stroke="black" d="M412.61,-122.11C412.61,-122.11 412.61,-140.99 412.61,-140.99"/>
<polygon fill="black" stroke="black" points="409.11,-140.99 412.61,-150.99 416.11,-140.99 409.11,-140.99"/>
</g>
<!-- BubbleChartCardComponent  -->
<g id="node6" class="node">
<title>BubbleChartCardComponent </title>
<polygon fill="#fb8072" stroke="black" points="780.59,-252 597.41,-252 597.41,-216 780.59,-216 780.59,-252"/>
<text text-anchor="middle" x="689" y="-229.8" font-family="Times,serif" font-size="14.00">BubbleChartCardComponent </text>
</g>
<!-- ChartCardsUiModule&#45;&gt;BubbleChartCardComponent  -->
<g id="edge5" class="edge">
<title>ChartCardsUiModule&#45;&gt;BubbleChartCardComponent </title>
<path fill="none" stroke="black" stroke-dasharray="5,2" d="M535.1,-175C581.24,-175 633.5,-175 633.5,-175 633.5,-175 633.5,-205.98 633.5,-205.98"/>
<polygon fill="black" stroke="black" points="630,-205.98 633.5,-215.98 637,-205.98 630,-205.98"/>
</g>
<!-- ForceDirectedGraphCardComponent  -->
<g id="node7" class="node">
<title>ForceDirectedGraphCardComponent </title>
<polygon fill="#fb8072" stroke="black" points="579.59,-252 352.41,-252 352.41,-216 579.59,-216 579.59,-252"/>
<text text-anchor="middle" x="466" y="-229.8" font-family="Times,serif" font-size="14.00">ForceDirectedGraphCardComponent </text>
</g>
<!-- ChartCardsUiModule&#45;&gt;ForceDirectedGraphCardComponent  -->
<g id="edge6" class="edge">
<title>ChartCardsUiModule&#45;&gt;ForceDirectedGraphCardComponent </title>
<path fill="none" stroke="black" stroke-dasharray="5,2" d="M466,-187.11C466,-187.11 466,-205.99 466,-205.99"/>
<polygon fill="black" stroke="black" points="462.5,-205.99 466,-215.99 469.5,-205.99 462.5,-205.99"/>
</g>
<!-- HorizontalBarChartCardComponent  -->
<g id="node8" class="node">
<title>HorizontalBarChartCardComponent </title>
<polygon fill="#fb8072" stroke="black" points="334.73,-252 111.27,-252 111.27,-216 334.73,-216 334.73,-252"/>
<text text-anchor="middle" x="223" y="-229.8" font-family="Times,serif" font-size="14.00">HorizontalBarChartCardComponent </text>
</g>
<!-- ChartCardsUiModule&#45;&gt;HorizontalBarChartCardComponent  -->
<g id="edge7" class="edge">
<title>ChartCardsUiModule&#45;&gt;HorizontalBarChartCardComponent </title>
<path fill="none" stroke="black" stroke-dasharray="5,2" d="M397.11,-175C341.12,-175 271.38,-175 271.38,-175 271.38,-175 271.38,-205.98 271.38,-205.98"/>
<polygon fill="black" stroke="black" points="267.88,-205.98 271.38,-215.98 274.88,-205.98 267.88,-205.98"/>
</g>
<!-- CommonMaterialModule -->
<g id="node5" class="node">
<title>CommonMaterialModule</title>
<polygon fill="#8dd3c7" stroke="black" points="183.59,-122 180.59,-126 159.59,-126 156.59,-122 24.41,-122 24.41,-86 183.59,-86 183.59,-122"/>
<text text-anchor="middle" x="104" y="-99.8" font-family="Times,serif" font-size="14.00">CommonMaterialModule</text>
</g>
<!-- CommonMaterialModule&#45;&gt;ChartCardsUiModule -->
<g id="edge4" class="edge">
<title>CommonMaterialModule&#45;&gt;ChartCardsUiModule</title>
<path fill="none" stroke="black" d="M147.47,-122.02C147.47,-139.37 147.47,-163 147.47,-163 147.47,-163 387.27,-163 387.27,-163"/>
<polygon fill="black" stroke="black" points="387.27,-166.5 397.27,-163 387.27,-159.5 387.27,-166.5"/>
</g>
</g>
</svg>
