<?xml version="1.0" encoding="UTF-8" standalone="no"?>
<!DOCTYPE svg PUBLIC "-//W3C//DTD SVG 1.1//EN"
 "http://www.w3.org/Graphics/SVG/1.1/DTD/svg11.dtd">
<!-- Generated by graphviz version 2.46.1 (20210213.1702)
 -->
<!-- Title: dependencies Pages: 1 -->
<svg width="504pt" height="211pt"
 viewBox="0.00 0.00 504.00 211.00" xmlns="http://www.w3.org/2000/svg" xmlns:xlink="http://www.w3.org/1999/xlink">
<g id="graph0" class="graph" transform="scale(1 1) rotate(0) translate(4 207)">
<title>dependencies</title>
<polygon fill="white" stroke="transparent" points="-4,4 -4,-207 500,-207 500,4 -4,4"/>
<text text-anchor="start" x="227.01" y="-42.4" font-family="sans-serif" font-weight="bold" font-size="14.00">Legend</text>
<polygon fill="#ffffb3" stroke="transparent" points="14,-10 14,-30 34,-30 34,-10 14,-10"/>
<text text-anchor="start" x="37.63" y="-15.4" font-family="sans-serif" font-size="14.00"> &#160;Declarations</text>
<polygon fill="#8dd3c7" stroke="transparent" points="127,-10 127,-30 147,-30 147,-10 127,-10"/>
<text text-anchor="start" x="150.73" y="-15.4" font-family="sans-serif" font-size="14.00"> &#160;Module</text>
<polygon fill="#80b1d3" stroke="transparent" points="213,-10 213,-30 233,-30 233,-10 213,-10"/>
<text text-anchor="start" x="236.78" y="-15.4" font-family="sans-serif" font-size="14.00"> &#160;Bootstrap</text>
<polygon fill="#fdb462" stroke="transparent" points="310,-10 310,-30 330,-30 330,-10 310,-10"/>
<text text-anchor="start" x="333.67" y="-15.4" font-family="sans-serif" font-size="14.00"> &#160;Providers</text>
<polygon fill="#fb8072" stroke="transparent" points="406,-10 406,-30 426,-30 426,-10 406,-10"/>
<text text-anchor="start" x="429.73" y="-15.4" font-family="sans-serif" font-size="14.00"> &#160;Exports</text>
<g id="clust1" class="cluster">
<title>cluster_UsersModule</title>
<polygon fill="none" stroke="black" stroke-dasharray="1,5" points="30,-70 30,-195 466,-195 466,-70 30,-70"/>
</g>
<g id="clust4" class="cluster">
<title>cluster_UsersModule_imports</title>
<polygon fill="none" stroke="black" points="176,-78 176,-130 458,-130 458,-78 176,-78"/>
</g>
<g id="clust2" class="cluster">
<title>cluster_UsersModule_declarations</title>
<polygon fill="none" stroke="black" points="38,-78 38,-130 168,-130 168,-78 38,-78"/>
</g>
<!-- UsersComponent -->
<g id="node1" class="node">
<title>UsersComponent</title>
<polygon fill="#ffffb3" stroke="black" points="159.7,-122 46.3,-122 46.3,-86 159.7,-86 159.7,-122"/>
<text text-anchor="middle" x="103" y="-99.8" font-family="Times,serif" font-size="14.00">UsersComponent</text>
</g>
<!-- UsersModule -->
<g id="node2" class="node">
<title>UsersModule</title>
<polygon fill="#8dd3c7" stroke="black" points="297.92,-187 294.92,-191 273.92,-191 270.92,-187 206.08,-187 206.08,-151 297.92,-151 297.92,-187"/>
<text text-anchor="middle" x="252" y="-164.8" font-family="Times,serif" font-size="14.00">UsersModule</text>
</g>
<!-- UsersComponent&#45;&gt;UsersModule -->
<g id="edge1" class="edge">
<title>UsersComponent&#45;&gt;UsersModule</title>
<path fill="none" stroke="black" d="M103,-122.11C103,-141.34 103,-169 103,-169 103,-169 196.08,-169 196.08,-169"/>
<polygon fill="black" stroke="black" points="196.08,-172.5 206.08,-169 196.08,-165.5 196.08,-172.5"/>
</g>
<!-- SharedUiModule -->
<g id="node3" class="node">
<title>SharedUiModule</title>
<polygon fill="#8dd3c7" stroke="black" points="450.42,-122 447.42,-126 426.42,-126 423.42,-122 337.58,-122 337.58,-86 450.42,-86 450.42,-122"/>
<text text-anchor="middle" x="394" y="-99.8" font-family="Times,serif" font-size="14.00">SharedUiModule</text>
</g>
<!-- SharedUiModule&#45;&gt;UsersModule -->
<g id="edge2" class="edge">
<title>SharedUiModule&#45;&gt;UsersModule</title>
<path fill="none" stroke="black" d="M394,-122.11C394,-141.34 394,-169 394,-169 394,-169 307.71,-169 307.71,-169"/>
<polygon fill="black" stroke="black" points="307.71,-165.5 297.71,-169 307.71,-172.5 307.71,-165.5"/>
</g>
<!-- UsersRoutingModule -->
<g id="node4" class="node">
<title>UsersRoutingModule</title>
<polygon fill="#8dd3c7" stroke="black" points="320.04,-122 317.04,-126 296.04,-126 293.04,-122 183.96,-122 183.96,-86 320.04,-86 320.04,-122"/>
<text text-anchor="middle" x="252" y="-99.8" font-family="Times,serif" font-size="14.00">UsersRoutingModule</text>
</g>
<!-- UsersRoutingModule&#45;&gt;UsersModule -->
<g id="edge3" class="edge">
<title>UsersRoutingModule&#45;&gt;UsersModule</title>
<path fill="none" stroke="black" d="M252,-122.11C252,-122.11 252,-140.99 252,-140.99"/>
<polygon fill="black" stroke="black" points="248.5,-140.99 252,-150.99 255.5,-140.99 248.5,-140.99"/>
</g>
</g>
</svg>
