<?xml version="1.0" encoding="UTF-8" standalone="no"?>
<!DOCTYPE svg PUBLIC "-//W3C//DTD SVG 1.1//EN"
 "http://www.w3.org/Graphics/SVG/1.1/DTD/svg11.dtd">
<!-- Generated by graphviz version 2.46.1 (20210213.1702)
 -->
<!-- Title: dependencies Pages: 1 -->
<svg width="542pt" height="284pt"
 viewBox="0.00 0.00 542.00 284.00" xmlns="http://www.w3.org/2000/svg" xmlns:xlink="http://www.w3.org/1999/xlink">
<g id="graph0" class="graph" transform="scale(1 1) rotate(0) translate(4 280)">
<title>dependencies</title>
<polygon fill="white" stroke="transparent" points="-4,4 -4,-280 538,-280 538,4 -4,4"/>
<text text-anchor="start" x="246.01" y="-42.4" font-family="sans-serif" font-weight="bold" font-size="14.00">Legend</text>
<polygon fill="#ffffb3" stroke="transparent" points="33,-10 33,-30 53,-30 53,-10 33,-10"/>
<text text-anchor="start" x="56.63" y="-15.4" font-family="sans-serif" font-size="14.00"> &#160;Declarations</text>
<polygon fill="#8dd3c7" stroke="transparent" points="146,-10 146,-30 166,-30 166,-10 146,-10"/>
<text text-anchor="start" x="169.73" y="-15.4" font-family="sans-serif" font-size="14.00"> &#160;Module</text>
<polygon fill="#80b1d3" stroke="transparent" points="232,-10 232,-30 252,-30 252,-10 232,-10"/>
<text text-anchor="start" x="255.78" y="-15.4" font-family="sans-serif" font-size="14.00"> &#160;Bootstrap</text>
<polygon fill="#fdb462" stroke="transparent" points="329,-10 329,-30 349,-30 349,-10 329,-10"/>
<text text-anchor="start" x="352.67" y="-15.4" font-family="sans-serif" font-size="14.00"> &#160;Providers</text>
<polygon fill="#fb8072" stroke="transparent" points="425,-10 425,-30 445,-30 445,-10 425,-10"/>
<text text-anchor="start" x="448.73" y="-15.4" font-family="sans-serif" font-size="14.00"> &#160;Exports</text>
<g id="clust1" class="cluster">
<title>cluster_SharedUiModule</title>
<polygon fill="none" stroke="black" stroke-dasharray="1,5" points="8,-70 8,-268 526,-268 526,-70 8,-70"/>
</g>
<g id="clust6" class="cluster">
<title>cluster_SharedUiModule_exports</title>
<polygon fill="none" stroke="black" points="16,-208 16,-260 518,-260 518,-208 16,-208"/>
</g>
<g id="clust5" class="cluster">
<title>cluster_SharedUiModule_imports</title>
<polygon fill="none" stroke="black" points="342,-78 342,-130 518,-130 518,-78 342,-78"/>
</g>
<g id="clust2" class="cluster">
<title>cluster_SharedUiModule_declarations</title>
<polygon fill="none" stroke="black" points="20,-78 20,-130 334,-130 334,-78 20,-78"/>
</g>
<!-- NoContentComponent -->
<g id="node1" class="node">
<title>NoContentComponent</title>
<polygon fill="#ffffb3" stroke="black" points="326.27,-122 183.73,-122 183.73,-86 326.27,-86 326.27,-122"/>
<text text-anchor="middle" x="255" y="-99.8" font-family="Times,serif" font-size="14.00">NoContentComponent</text>
</g>
<!-- SharedUiModule -->
<g id="node3" class="node">
<title>SharedUiModule</title>
<polygon fill="#8dd3c7" stroke="black" points="312.42,-187 309.42,-191 288.42,-191 285.42,-187 199.58,-187 199.58,-151 312.42,-151 312.42,-187"/>
<text text-anchor="middle" x="256" y="-164.8" font-family="Times,serif" font-size="14.00">SharedUiModule</text>
</g>
<!-- NoContentComponent&#45;&gt;SharedUiModule -->
<g id="edge1" class="edge">
<title>NoContentComponent&#45;&gt;SharedUiModule</title>
<path fill="none" stroke="black" d="M256,-122.11C256,-122.11 256,-140.99 256,-140.99"/>
<polygon fill="black" stroke="black" points="252.5,-140.99 256,-150.99 259.5,-140.99 252.5,-140.99"/>
</g>
<!-- UserFormComponent -->
<g id="node2" class="node">
<title>UserFormComponent</title>
<polygon fill="#ffffb3" stroke="black" points="166.09,-122 27.91,-122 27.91,-86 166.09,-86 166.09,-122"/>
<text text-anchor="middle" x="97" y="-99.8" font-family="Times,serif" font-size="14.00">UserFormComponent</text>
</g>
<!-- UserFormComponent&#45;&gt;SharedUiModule -->
<g id="edge2" class="edge">
<title>UserFormComponent&#45;&gt;SharedUiModule</title>
<path fill="none" stroke="black" d="M119.85,-122.02C119.85,-139.37 119.85,-163 119.85,-163 119.85,-163 189.44,-163 189.44,-163"/>
<polygon fill="black" stroke="black" points="189.44,-166.5 199.44,-163 189.44,-159.5 189.44,-166.5"/>
</g>
<!-- CommonMaterialModule  -->
<g id="node5" class="node">
<title>CommonMaterialModule </title>
<polygon fill="#fb8072" stroke="black" points="510.09,-252 347.91,-252 347.91,-216 510.09,-216 510.09,-252"/>
<text text-anchor="middle" x="429" y="-229.8" font-family="Times,serif" font-size="14.00">CommonMaterialModule </text>
</g>
<!-- SharedUiModule&#45;&gt;CommonMaterialModule  -->
<g id="edge4" class="edge">
<title>SharedUiModule&#45;&gt;CommonMaterialModule </title>
<path fill="none" stroke="black" stroke-dasharray="5,2" d="M312.39,-175C371.7,-175 456.51,-175 456.51,-175 456.51,-175 456.51,-205.98 456.51,-205.98"/>
<polygon fill="black" stroke="black" points="453.01,-205.98 456.51,-215.98 460.01,-205.98 453.01,-205.98"/>
</g>
<!-- NoContentComponent  -->
<g id="node6" class="node">
<title>NoContentComponent </title>
<polygon fill="#fb8072" stroke="black" points="330.27,-252 183.73,-252 183.73,-216 330.27,-216 330.27,-252"/>
<text text-anchor="middle" x="257" y="-229.8" font-family="Times,serif" font-size="14.00">NoContentComponent </text>
</g>
<!-- SharedUiModule&#45;&gt;NoContentComponent  -->
<g id="edge5" class="edge">
<title>SharedUiModule&#45;&gt;NoContentComponent </title>
<path fill="none" stroke="black" stroke-dasharray="5,2" d="M256,-187.11C256,-187.11 256,-205.99 256,-205.99"/>
<polygon fill="black" stroke="black" points="252.5,-205.99 256,-215.99 259.5,-205.99 252.5,-205.99"/>
</g>
<!-- UserFormComponent  -->
<g id="node7" class="node">
<title>UserFormComponent </title>
<polygon fill="#fb8072" stroke="black" points="165.59,-252 24.41,-252 24.41,-216 165.59,-216 165.59,-252"/>
<text text-anchor="middle" x="95" y="-229.8" font-family="Times,serif" font-size="14.00">UserFormComponent </text>
</g>
<!-- SharedUiModule&#45;&gt;UserFormComponent  -->
<g id="edge6" class="edge">
<title>SharedUiModule&#45;&gt;UserFormComponent </title>
<path fill="none" stroke="black" stroke-dasharray="5,2" d="M199.38,-175C145.93,-175 73.9,-175 73.9,-175 73.9,-175 73.9,-205.98 73.9,-205.98"/>
<polygon fill="black" stroke="black" points="70.4,-205.98 73.9,-215.98 77.4,-205.98 70.4,-205.98"/>
</g>
<!-- CommonMaterialModule -->
<g id="node4" class="node">
<title>CommonMaterialModule</title>
<polygon fill="#8dd3c7" stroke="black" points="509.59,-122 506.59,-126 485.59,-126 482.59,-122 350.41,-122 350.41,-86 509.59,-86 509.59,-122"/>
<text text-anchor="middle" x="430" y="-99.8" font-family="Times,serif" font-size="14.00">CommonMaterialModule</text>
</g>
<!-- CommonMaterialModule&#45;&gt;SharedUiModule -->
<g id="edge3" class="edge">
<title>CommonMaterialModule&#45;&gt;SharedUiModule</title>
<path fill="none" stroke="black" d="M403.49,-122.02C403.49,-139.37 403.49,-163 403.49,-163 403.49,-163 322.6,-163 322.6,-163"/>
<polygon fill="black" stroke="black" points="322.6,-159.5 312.6,-163 322.6,-166.5 322.6,-159.5"/>
</g>
</g>
</svg>
